%TF.GenerationSoftware,KiCad,Pcbnew,8.0.2*%
%TF.CreationDate,2024-11-22T12:12:35-08:00*%
%TF.ProjectId,retroglow_sp,72657472-6f67-46c6-9f77-5f73702e6b69,rev?*%
%TF.SameCoordinates,Original*%
%TF.FileFunction,Paste,Top*%
%TF.FilePolarity,Positive*%
%FSLAX46Y46*%
G04 Gerber Fmt 4.6, Leading zero omitted, Abs format (unit mm)*
G04 Created by KiCad (PCBNEW 8.0.2) date 2024-11-22 12:12:35*
%MOMM*%
%LPD*%
G01*
G04 APERTURE LIST*
G04 Aperture macros list*
%AMRoundRect*
0 Rectangle with rounded corners*
0 $1 Rounding radius*
0 $2 $3 $4 $5 $6 $7 $8 $9 X,Y pos of 4 corners*
0 Add a 4 corners polygon primitive as box body*
4,1,4,$2,$3,$4,$5,$6,$7,$8,$9,$2,$3,0*
0 Add four circle primitives for the rounded corners*
1,1,$1+$1,$2,$3*
1,1,$1+$1,$4,$5*
1,1,$1+$1,$6,$7*
1,1,$1+$1,$8,$9*
0 Add four rect primitives between the rounded corners*
20,1,$1+$1,$2,$3,$4,$5,0*
20,1,$1+$1,$4,$5,$6,$7,0*
20,1,$1+$1,$6,$7,$8,$9,0*
20,1,$1+$1,$8,$9,$2,$3,0*%
G04 Aperture macros list end*
%ADD10RoundRect,0.135000X-0.185000X0.135000X-0.185000X-0.135000X0.185000X-0.135000X0.185000X0.135000X0*%
%ADD11RoundRect,0.100000X-0.100000X0.225000X-0.100000X-0.225000X0.100000X-0.225000X0.100000X0.225000X0*%
%ADD12R,0.370000X0.370000*%
%ADD13RoundRect,0.135000X0.135000X0.185000X-0.135000X0.185000X-0.135000X-0.185000X0.135000X-0.185000X0*%
%ADD14RoundRect,0.250000X-0.475000X0.250000X-0.475000X-0.250000X0.475000X-0.250000X0.475000X0.250000X0*%
%ADD15RoundRect,0.250000X-0.275000X-0.275000X0.275000X-0.275000X0.275000X0.275000X-0.275000X0.275000X0*%
%ADD16RoundRect,0.062500X-0.362500X-0.062500X0.362500X-0.062500X0.362500X0.062500X-0.362500X0.062500X0*%
%ADD17RoundRect,0.062500X-0.062500X-0.362500X0.062500X-0.362500X0.062500X0.362500X-0.062500X0.362500X0*%
%ADD18RoundRect,0.135000X0.185000X-0.135000X0.185000X0.135000X-0.185000X0.135000X-0.185000X-0.135000X0*%
G04 APERTURE END LIST*
D10*
%TO.C,R1*%
X239599825Y-105051944D03*
X239599825Y-106071944D03*
%TD*%
D11*
%TO.C,D1*%
X238949825Y-107261944D03*
X238299825Y-107261944D03*
X237649825Y-107261944D03*
X237649825Y-109161944D03*
X238299825Y-109161944D03*
X238949825Y-109161944D03*
%TD*%
D12*
%TO.C,L4*%
X229332484Y-126645784D03*
X230002484Y-126645784D03*
X230002484Y-125975784D03*
X229332484Y-125975784D03*
%TD*%
D13*
%TO.C,R4*%
X230109825Y-103361944D03*
X229089825Y-103361944D03*
%TD*%
D12*
%TO.C,L5*%
X242812485Y-105725784D03*
X243482485Y-105725784D03*
X243482485Y-105055784D03*
X242812485Y-105055784D03*
%TD*%
%TO.C,L7*%
X249552485Y-159605784D03*
X250222485Y-159605784D03*
X250222485Y-158935784D03*
X249552485Y-158935784D03*
%TD*%
D14*
%TO.C,C1*%
X236549825Y-97111944D03*
X236549825Y-99011944D03*
%TD*%
D15*
%TO.C,U1*%
X231199825Y-97011944D03*
X231199825Y-98311944D03*
X232499825Y-97011944D03*
X232499825Y-98311944D03*
D16*
X229924825Y-96661944D03*
X229924825Y-97161944D03*
X229924825Y-97661944D03*
X229924825Y-98161944D03*
X229924825Y-98661944D03*
D17*
X230849825Y-99586944D03*
X231349825Y-99586944D03*
X231849825Y-99586944D03*
X232349825Y-99586944D03*
X232849825Y-99586944D03*
D16*
X233774825Y-98661944D03*
X233774825Y-98161944D03*
X233774825Y-97661944D03*
X233774825Y-97161944D03*
X233774825Y-96661944D03*
D17*
X232849825Y-95736944D03*
X232349825Y-95736944D03*
X231849825Y-95736944D03*
X231349825Y-95736944D03*
X230849825Y-95736944D03*
%TD*%
D12*
%TO.C,L3*%
X215667483Y-126810784D03*
X216337483Y-126810784D03*
X216337483Y-126140784D03*
X215667483Y-126140784D03*
%TD*%
D18*
%TO.C,R3*%
X237049825Y-106071944D03*
X237049825Y-105051944D03*
%TD*%
%TO.C,R6*%
X233249825Y-147471944D03*
X233249825Y-146451944D03*
%TD*%
D12*
%TO.C,L1*%
X229352484Y-113725784D03*
X230022484Y-113725784D03*
X230022484Y-113055784D03*
X229352484Y-113055784D03*
%TD*%
%TO.C,L9*%
X269092485Y-122429784D03*
X269762485Y-122429784D03*
X269762485Y-121759784D03*
X269092485Y-121759784D03*
%TD*%
D10*
%TO.C,R5*%
X230749825Y-101301944D03*
X230749825Y-102321944D03*
%TD*%
D12*
%TO.C,L8*%
X255957485Y-126190784D03*
X256627485Y-126190784D03*
X256627485Y-125520784D03*
X255957485Y-125520784D03*
%TD*%
%TO.C,L2*%
X215672484Y-113455784D03*
X216342484Y-113455784D03*
X216342484Y-112785784D03*
X215672484Y-112785784D03*
%TD*%
%TO.C,L6*%
X236077485Y-159610784D03*
X236747485Y-159610784D03*
X236747485Y-158940784D03*
X236077485Y-158940784D03*
%TD*%
D10*
%TO.C,R2*%
X238299825Y-105051944D03*
X238299825Y-106071944D03*
%TD*%
M02*
