M48
; DRILL file {KiCad 8.0.2} date 2024-11-22T12:12:38-0800
; FORMAT={-:-/ absolute / inch / decimal}
; #@! TF.CreationDate,2024-11-22T12:12:38-08:00
; #@! TF.GenerationSoftware,Kicad,Pcbnew,8.0.2
; #@! TF.FileFunction,Plated,1,2,PTH
FMAT,2
INCH
; #@! TA.AperFunction,Plated,PTH,ViaDrill
T1C0.0118
; #@! TA.AperFunction,Plated,PTH,ViaDrill
T2C0.0138
; #@! TA.AperFunction,Plated,PTH,ViaDrill
T3C0.0335
; #@! TA.AperFunction,Plated,PTH,ViaDrill
T4C0.0394
%
G90
G05
T1
X8.4153Y-5.0241
X8.4311Y-4.9572
X9.0197Y-4.3824
X9.0304Y-3.7698
X9.059Y-4.1678
X9.0886Y-4.3587
X9.0984Y-4.2032
X9.1268Y-3.9654
X9.1299Y-4.1343
X9.1575Y-4.1619
X9.2778Y-3.7844
X9.313Y-3.7761
X9.5275Y-4.2526
X9.5472Y-4.2406
X9.6017Y-4.3623
X9.6302Y-4.3583
X9.6775Y-4.506
X9.6775Y-4.5538
X9.7662Y-4.6081
X9.8Y-4.5729
T2
X8.5039Y-4.5005
X8.5315Y-5.0398
X8.9823Y-4.0713
X9.1024Y-4.4808
X9.1024Y-4.9965
X9.1122Y-6.1973
X9.1279Y-3.845
X9.1279Y-4.4139
X9.1772Y-4.4139
X9.1791Y-5.7288
X9.2323Y-6.2623
X9.2598Y-5.7288
X9.2605Y-3.8169
X9.3307Y-4.1028
X9.3327Y-4.0654
X9.3464Y-4.3331
X9.3543Y-3.9372
X9.3563Y-3.9788
X9.3681Y-6.2898
X9.3729Y-4.2519
X9.3819Y-4.1009
X9.3976Y-4.3568
X9.4153Y-4.53
X9.4331Y-4.1009
X9.4646Y-4.3213
X9.4705Y-4.2446
X9.6068Y-4.221
X9.6752Y-4.2564
X9.7697Y-6.2662
X9.8248Y-6.3312
X9.8976Y-6.2879
X9.9272Y-5.7918
X9.935Y-5.7111
X10.1516Y-4.9749
X10.6673Y-4.8253
T3
X9.3605Y-4.3924
X9.5239Y-4.3077
X9.6471Y-4.3077
X10.4137Y-4.7609
T4
X9.153Y-5.8855
X9.9894Y-5.8511
M30
