%TF.GenerationSoftware,KiCad,Pcbnew,8.0.2*%
%TF.CreationDate,2024-11-22T12:12:35-08:00*%
%TF.ProjectId,retroglow_sp,72657472-6f67-46c6-9f77-5f73702e6b69,rev?*%
%TF.SameCoordinates,Original*%
%TF.FileFunction,Profile,NP*%
%FSLAX46Y46*%
G04 Gerber Fmt 4.6, Leading zero omitted, Abs format (unit mm)*
G04 Created by KiCad (PCBNEW 8.0.2) date 2024-11-22 12:12:35*
%MOMM*%
%LPD*%
G01*
G04 APERTURE LIST*
%TA.AperFunction,Profile*%
%ADD10C,0.010000*%
%TD*%
%TA.AperFunction,Profile*%
%ADD11C,0.010050*%
%TD*%
G04 APERTURE END LIST*
D10*
X253823929Y-150315240D02*
G75*
G02*
X252921553Y-161461864I-3946434J-5290354D01*
G01*
X260447485Y-124905784D02*
X252047485Y-124905784D01*
X252047485Y-124905784D02*
X252047485Y-117255784D01*
X236377485Y-111005784D02*
G75*
G02*
X236127485Y-111255704I-249960J40D01*
G01*
X247652486Y-129022516D02*
G75*
G02*
X238652484Y-129022516I-4500001J-8508268D01*
G01*
X233277485Y-158405784D02*
X233277485Y-152805784D01*
X239927485Y-113155784D02*
X239927485Y-111555784D01*
X238652485Y-129022517D02*
X238652485Y-119462625D01*
X246027485Y-113355784D02*
X240127485Y-113355784D01*
X260447485Y-117255784D02*
X260447485Y-124905784D01*
X247177485Y-161574575D02*
G75*
G02*
X246177494Y-160574575I40J1000031D01*
G01*
X247406119Y-111293035D02*
X246775444Y-110613615D01*
X227127485Y-130755784D02*
X218727485Y-130755784D01*
X265427485Y-113475784D02*
X273577485Y-113475784D01*
X234027485Y-123755784D02*
X227127485Y-123755784D01*
X236377485Y-102005784D02*
X236377485Y-111005784D01*
X245775585Y-104537253D02*
X240232635Y-104537253D01*
X253753686Y-147198282D02*
G75*
G02*
X253770340Y-147059202I999639J-49162D01*
G01*
X248673185Y-113977815D02*
G75*
G02*
X247673224Y-112965885I40J1000071D01*
G01*
X262123300Y-114212384D02*
G75*
G02*
X260653647Y-114645382I-916475J400040D01*
G01*
X227143245Y-134081453D02*
X232672054Y-148867543D01*
X246775444Y-110613615D02*
X246775444Y-105525269D01*
X233727485Y-161574575D02*
G75*
G02*
X233591126Y-161565228I40J999931D01*
G01*
X226024313Y-133448447D02*
G75*
G02*
X222345672Y-133795683I-3143488J13642803D01*
G01*
X239577485Y-158405784D02*
X233277485Y-158405784D01*
X245775585Y-104537253D02*
G75*
G02*
X246775444Y-105525269I-60J-999991D01*
G01*
X234127485Y-111255784D02*
G75*
G02*
X233877485Y-111005784I40J250040D01*
G01*
X246227485Y-111555784D02*
X246227485Y-113155784D01*
X211727485Y-115855784D02*
X218727485Y-115855784D01*
X228449685Y-95884284D02*
G75*
G02*
X229449685Y-94884304I1000040J-60D01*
G01*
X246727485Y-158405784D02*
X246727485Y-152805784D01*
X239927485Y-111555784D02*
G75*
G02*
X240127485Y-111355704I200040J40D01*
G01*
X239232685Y-94884315D02*
X229449685Y-94884315D01*
D11*
X255547510Y-125105784D02*
G75*
G02*
X255537460Y-125105784I-5025J0D01*
G01*
X255537460Y-125105784D02*
G75*
G02*
X255547510Y-125105784I5025J0D01*
G01*
D10*
X247673226Y-112965885D02*
X247673203Y-111973384D01*
X246177485Y-159956883D02*
X246177485Y-160574575D01*
X273577485Y-121125784D02*
X265427485Y-121125784D01*
X263601663Y-124150312D02*
G75*
G02*
X265071288Y-123717366I916462J-400132D01*
G01*
X226024313Y-133448447D02*
G75*
G02*
X227143315Y-134081427I182312J-983297D01*
G01*
X254641821Y-113506793D02*
X250421504Y-113977815D01*
X246027485Y-111355784D02*
G75*
G02*
X246227485Y-111555784I40J-199960D01*
G01*
X218727485Y-130755784D02*
X218727485Y-123755784D01*
X273577485Y-113475784D02*
X273577485Y-121125784D01*
X222345672Y-133795687D02*
G75*
G02*
X222579704Y-105808944I531813J13989903D01*
G01*
X232529425Y-150290011D02*
X231965563Y-150742530D01*
X218727485Y-123755784D02*
X211727485Y-123755784D01*
X240127485Y-160574584D02*
X240127485Y-159946884D01*
X239232685Y-94884315D02*
G75*
G02*
X240232636Y-95878285I40J-999929D01*
G01*
X240232635Y-104537253D02*
X240232635Y-95878285D01*
X244402485Y-117258603D02*
G75*
G02*
X241902485Y-117258603I-1250000J0D01*
G01*
X241902485Y-117258603D02*
G75*
G02*
X244402485Y-117258603I1250000J0D01*
G01*
X236127485Y-111255784D02*
X234127485Y-111255784D01*
X247406118Y-111293036D02*
G75*
G02*
X247673159Y-111973384I-732793J-680208D01*
G01*
X253752485Y-150162034D02*
X253752485Y-149298353D01*
X240127485Y-111355784D02*
X246027485Y-111355784D01*
X252921549Y-161461854D02*
G75*
G02*
X252460285Y-161574545I-461224J887510D01*
G01*
X218727485Y-115855784D02*
X218727485Y-108855784D01*
X232672054Y-148867543D02*
X232867904Y-149391322D01*
X253801313Y-130127982D02*
G75*
G02*
X253770342Y-147059203I-44651588J-8383962D01*
G01*
X227127485Y-108855784D02*
X227127485Y-115855784D01*
X240127485Y-113355784D02*
G75*
G02*
X239927485Y-113155784I40J200040D01*
G01*
X253027485Y-152805784D02*
X253027485Y-158405784D01*
X253801313Y-130127982D02*
G75*
G02*
X254955893Y-128965673I984212J176938D01*
G01*
X265427485Y-121125784D02*
X265427485Y-113475784D01*
X250421504Y-113977815D02*
X248673185Y-113977815D01*
X262123300Y-114212384D02*
G75*
G02*
X274182022Y-110879232I7303925J-2944560D01*
G01*
X218727485Y-108855784D02*
X227127485Y-108855784D01*
X233727485Y-161574575D02*
X239131484Y-161574575D01*
X246227485Y-113155784D02*
G75*
G02*
X246027485Y-113355704I-199960J40D01*
G01*
X232867914Y-149391320D02*
G75*
G02*
X232529392Y-150289970I-928489J-163324D01*
G01*
X227127485Y-123755784D02*
X227127485Y-130755784D01*
X253823929Y-150315240D02*
G75*
G02*
X253752515Y-150162034I128396J153096D01*
G01*
X233877485Y-111005784D02*
X233877485Y-102005784D01*
X247652485Y-119462625D02*
X247652486Y-129022516D01*
X228449685Y-101849634D02*
G75*
G02*
X227962610Y-102708168I-1000160J-10D01*
G01*
X240127485Y-160574584D02*
G75*
G02*
X239131484Y-161574496I-999960J40D01*
G01*
X227962612Y-102708172D02*
X223076003Y-105664814D01*
X253752485Y-149298353D02*
X253719816Y-148138284D01*
X228449685Y-95884284D02*
X228449685Y-101849634D01*
X234027485Y-115855784D02*
X234027485Y-123755784D01*
X241127485Y-158946934D02*
X245177385Y-158946934D01*
X274182049Y-110879196D02*
G75*
G02*
X265071308Y-123717335I-4754594J-6277688D01*
G01*
D11*
X268682510Y-121344784D02*
G75*
G02*
X268672460Y-121344784I-5025J0D01*
G01*
X268672460Y-121344784D02*
G75*
G02*
X268682510Y-121344784I5025J0D01*
G01*
D10*
X223076003Y-105664814D02*
G75*
G02*
X222579704Y-105808969I-517478J855170D01*
G01*
X246727485Y-152805784D02*
X253027485Y-152805784D01*
X240127485Y-159946884D02*
G75*
G02*
X241127485Y-158947004I999940J-60D01*
G01*
X211727485Y-123755784D02*
X211727485Y-115855784D01*
X254641821Y-113506793D02*
G75*
G02*
X260653684Y-114645326I1655704J-7698951D01*
G01*
X227127485Y-115855784D02*
X234027485Y-115855784D01*
X253719816Y-148138284D02*
X253753686Y-147198282D01*
X236127485Y-101755784D02*
G75*
G02*
X236377485Y-102005784I40J-249960D01*
G01*
X253027485Y-158405784D02*
X246727485Y-158405784D01*
X239577485Y-152805784D02*
X239577485Y-158405784D01*
X245177385Y-158946934D02*
G75*
G02*
X246177487Y-159956883I40J-1000110D01*
G01*
X238652485Y-119462625D02*
X247652485Y-119462625D01*
X252047485Y-117255784D02*
X260447485Y-117255784D01*
X233277485Y-152805784D02*
X239577485Y-152805784D01*
X234127485Y-101755784D02*
X236127485Y-101755784D01*
X233591125Y-161565234D02*
G75*
G02*
X231965526Y-150742489I2836400J5959490D01*
G01*
X263601663Y-124150312D02*
G75*
G02*
X254955892Y-128965674I-7303938J2944668D01*
G01*
X247177485Y-161574575D02*
X252460285Y-161574568D01*
X233877485Y-102005784D02*
G75*
G02*
X234127485Y-101755704I250040J40D01*
G01*
M02*
